<svg width="20" height="20" viewBox="0 0 20 20" fill="none" xmlns="http://www.w3.org/2000/svg">
<path d="M10.4432 6.37616C9.66687 6.37616 8.46558 5.51751 7.20041 5.54778C5.52991 5.56928 3.99861 6.49006 3.13798 7.94849C1.40442 10.8757 2.69578 15.1992 4.37448 17.5784C5.204 18.7366 6.18255 20.0397 7.47965 19.9991C8.72434 19.9473 9.1911 19.2129 10.7019 19.2129C12.2013 19.2129 12.6263 19.9991 13.9447 19.968C15.2852 19.9473 16.1319 18.7892 16.954 17.6199C17.9007 16.2753 18.2937 14.9714 18.315 14.8997C18.2831 14.8894 15.7093 13.9272 15.6782 11.031C15.6569 8.6104 17.709 7.44668 17.8048 7.39013C16.6355 5.7254 14.8381 5.53901 14.2002 5.49759C12.6795 5.37334 11.3824 6.38651 10.4464 6.38651C10.3613 6.38651 10.2868 6.38651 10.2057 6.37855L10.4432 6.37616ZM12.3675 3.00368C13.0374 2.20637 13.4836 1.10079 13.3584 0C12.3904 0.0414191 11.2186 0.630845 10.5267 1.41701C9.91007 2.10999 9.36798 3.23707 9.51619 4.30759C10.5906 4.39043 11.6952 3.801 12.3675 3.00368Z" fill="black"/>
</svg>
