<svg width="20" height="20" viewBox="0 0 20 20" fill="none" xmlns="http://www.w3.org/2000/svg">
<path d="M18.8 10.2083C18.8 9.55825 18.7417 8.93325 18.6333 8.33325H10V11.8833H14.9333C14.7167 13.0249 14.0667 13.9916 13.0917 14.6416V16.9499H16.0667C17.8 15.3499 18.8 12.9999 18.8 10.2083Z" fill="#4285F4"/>
<path d="M10 19.1667C12.475 19.1667 14.55 18.35 16.0667 16.95L13.0917 14.6417C12.275 15.1917 11.2333 15.525 10 15.525C7.61668 15.525 5.59168 13.9167 4.86668 11.75H1.81668V14.1167C3.32501 17.1083 6.41668 19.1667 10 19.1667Z" fill="#34A853"/>
<path d="M4.86668 11.7416C4.68334 11.1916 4.57501 10.6083 4.57501 9.99993C4.57501 9.3916 4.68334 8.80827 4.86668 8.25827V5.8916H1.81668C1.19168 7.12493 0.833344 8.5166 0.833344 9.99993C0.833344 11.4833 1.19168 12.8749 1.81668 14.1083L4.86668 11.7416Z" fill="#FBBC05"/>
<path d="M10 4.48325C11.35 4.48325 12.55 4.94992 13.5083 5.84992L16.1333 3.22492C14.5417 1.74159 12.475 0.833252 10 0.833252C6.41668 0.833252 3.32501 2.89159 1.81668 5.89159L4.86668 8.25825C5.59168 6.09159 7.61668 4.48325 10 4.48325Z" fill="#EA4335"/>
</svg>
