<svg width="506" height="486" viewBox="0 0 506 486" fill="none" xmlns="http://www.w3.org/2000/svg">
<rect x="131.32" y="128.49" width="410.39" height="4" transform="rotate(45 131.32 128.49)" fill="url(#paint0_linear_64_33)"/>
<rect x="73.8701" y="315.7" width="410.39" height="4" transform="rotate(-12 73.8701 315.7)" fill="url(#paint1_linear_64_33)"/>
<g filter="url(#filter0_f_64_33)">
<rect x="64" y="64" width="256" height="256" rx="128" fill="#9CF0FF" fill-opacity="0.2"/>
</g>
<g filter="url(#filter1_f_64_33)">
<rect x="274" y="254" width="192" height="192" rx="96" fill="#FFE16D" fill-opacity="0.1"/>
</g>
<rect x="153.875" y="140.47" width="256" height="256" rx="24" transform="rotate(3 153.875 140.47)" fill="white"/>
<rect x="154.348" y="140.995" width="255" height="255" rx="23.5" transform="rotate(3 154.348 140.995)" stroke="#C4C6CD" stroke-opacity="0.1"/>
<g filter="url(#filter2_d_64_33)">
<rect x="153.875" y="140.47" width="256" height="256" rx="24" transform="rotate(3 153.875 140.47)" fill="white" fill-opacity="0.01" shape-rendering="crispEdges"/>
</g>
<rect x="328.334" y="137.63" width="96.0023" height="96.0023" rx="16" transform="rotate(-9.00001 328.334 137.63)" fill="url(#paint2_linear_64_33)"/>
<rect x="328.907" y="138.046" width="95.0023" height="95.0023" rx="15.5" transform="rotate(-9.00001 328.907 138.046)" stroke="#00DAF3" stroke-opacity="0.3"/>
<path d="M377.229 190.635L384.177 183.358L393.032 188.132L388.521 178.823L395.53 171.942L385.851 173.475L381.063 163.703L379.53 174.476L369.85 176.009L378.644 180.387L377.229 190.635V190.635M386.382 197.285C383.65 197.718 381 197.606 378.432 196.949C375.864 196.293 373.551 195.217 371.491 193.72C369.432 192.224 367.693 190.357 366.276 188.117C364.858 185.878 363.933 183.392 363.5 180.66C363.067 177.927 363.179 175.277 363.835 172.709C364.492 170.142 365.568 167.828 367.064 165.769C368.56 163.709 370.428 161.971 372.667 160.553C374.906 159.135 377.392 158.21 380.125 157.777C382.857 157.345 385.508 157.456 388.075 158.113C390.643 158.769 392.956 159.845 395.016 161.342C397.075 162.838 398.814 164.706 400.232 166.945C401.649 169.184 402.575 171.67 403.007 174.402C403.44 177.135 403.328 179.785 402.672 182.353C402.016 184.92 400.939 187.234 399.443 189.293C397.947 191.353 396.079 193.091 393.84 194.509C391.601 195.927 389.115 196.852 386.382 197.285V197.285" fill="#00E3FD"/>
<rect x="215.691" y="183.765" width="128.005" height="127.995" rx="63.9977" transform="rotate(3 215.691 183.765)" fill="#F5F3F5"/>
<path d="M259.864 277.203L260.178 271.211L272.161 271.839L272.648 262.552C270.23 261.875 268.1 260.724 266.257 259.1C264.415 257.477 263.104 255.493 262.326 253.149C258.605 252.503 255.557 250.704 253.183 247.75C250.81 244.797 249.722 241.423 249.921 237.628L250.078 234.632C250.165 232.985 250.825 231.605 252.06 230.493C253.295 229.381 254.736 228.868 256.384 228.955L262.376 229.269L262.69 223.277L292.649 224.847L292.335 230.839L298.327 231.153C299.974 231.239 301.354 231.9 302.466 233.135C303.578 234.37 304.091 235.811 304.004 237.459L303.847 240.455C303.648 244.249 302.214 247.491 299.545 250.18C296.875 252.869 293.657 254.34 289.888 254.593C288.869 256.843 287.358 258.679 285.356 260.101C283.354 261.523 281.115 262.445 278.64 262.866L278.153 272.153L290.137 272.781L289.823 278.773L259.864 277.203V277.203M261.465 246.645L262.062 235.261L256.07 234.947L255.913 237.942C255.814 239.84 256.273 241.579 257.292 243.159C258.311 244.74 259.702 245.902 261.465 246.645V246.645M291.424 248.215C293.256 247.66 294.761 246.65 295.939 245.185C297.117 243.719 297.756 242.038 297.855 240.141L298.013 237.145L292.021 236.831L291.424 248.215V248.215" fill="#04172C"/>
<rect opacity="0.25" x="217.583" y="185.867" width="124.005" height="123.995" rx="61.9977" transform="rotate(3 217.583 185.867)" stroke="#9CF0FF" stroke-width="4"/>
<rect x="190.006" y="326.615" width="164.352" height="32" rx="16" transform="rotate(3 190.006 326.615)" fill="#D3E4FF"/>
<path d="M206.004 348.482L206.531 338.416L208.213 338.504L207.769 346.993L212.215 347.226L212.132 348.804L206.004 348.482ZM213.672 348.884L214.2 338.818L220.701 339.159L220.618 340.736L215.799 340.484L215.669 342.97L219.649 343.179L219.566 344.756L215.586 344.548L215.437 347.395L220.256 347.648L220.173 349.225L213.672 348.884ZM224.465 349.45L221.819 339.217L223.555 339.308L225.767 347.88L228.9 339.589L230.636 339.68L226.935 349.579L224.465 349.45ZM231.505 349.819L232.032 339.753L238.533 340.093L238.451 341.671L233.632 341.418L233.502 343.905L237.481 344.113L237.399 345.691L233.419 345.482L233.27 348.33L238.088 348.582L238.006 350.16L231.505 349.819ZM240.173 350.273L240.7 340.207L242.383 340.295L241.938 348.784L246.384 349.017L246.301 350.594L240.173 350.273ZM250.009 350.777L250.088 349.304L254.593 345.692C254.944 345.412 255.192 345.143 255.335 344.885C255.479 344.626 255.557 344.373 255.57 344.124C255.588 343.79 255.532 343.488 255.403 343.216C255.274 342.945 255.086 342.727 254.84 342.561C254.594 342.395 254.304 342.303 253.97 342.286C253.622 342.267 253.31 342.332 253.034 342.479C252.758 342.626 252.539 342.828 252.375 343.084C252.212 343.34 252.126 343.623 252.118 343.932L250.389 343.841C250.424 343.171 250.604 342.594 250.93 342.112C251.255 341.629 251.69 341.264 252.233 341.016C252.776 340.768 253.395 340.662 254.089 340.698C254.734 340.732 255.305 340.906 255.801 341.219C256.298 341.533 256.68 341.95 256.948 342.471C257.216 342.993 257.332 343.582 257.298 344.238C257.273 344.717 257.187 345.116 257.04 345.435C256.892 345.754 256.682 346.045 256.409 346.308C256.135 346.57 255.798 346.859 255.399 347.174L252.202 349.719L252.068 349.291L257.02 349.551L256.936 351.14L250.009 350.777ZM262.864 351.462L262.951 349.801L258.491 349.567L258.573 347.99L262.154 341.331L264.078 341.432L260.498 348.091L263.033 348.223L263.171 345.602L264.876 345.691L264.739 348.313L265.685 348.362L265.602 349.94L264.656 349.89L264.569 351.552L262.864 351.462ZM270.686 351.872L271.213 341.806L275.373 342.024C275.471 342.029 275.597 342.039 275.751 342.054C275.906 342.07 276.047 342.092 276.176 342.122C276.753 342.243 277.224 342.462 277.588 342.781C277.952 343.099 278.214 343.49 278.374 343.952C278.534 344.415 278.599 344.923 278.57 345.477C278.527 346.299 278.283 346.994 277.837 347.562C277.392 348.129 276.736 348.461 275.871 348.557L275.15 348.583L272.552 348.447L272.368 351.96L270.686 351.872ZM276.467 352.175L274.696 347.975L276.431 347.687L278.378 352.275L276.467 352.175ZM272.635 346.869L275.042 346.995C275.137 347 275.242 347.001 275.358 346.998C275.474 346.994 275.582 346.982 275.684 346.961C275.966 346.905 276.192 346.793 276.361 346.625C276.531 346.456 276.655 346.262 276.734 346.041C276.813 345.82 276.858 345.602 276.869 345.388C276.881 345.173 276.859 344.952 276.803 344.724C276.748 344.496 276.644 344.29 276.493 344.104C276.342 343.919 276.129 343.784 275.855 343.699C275.756 343.666 275.649 343.643 275.535 343.628C275.42 343.613 275.315 343.603 275.22 343.598L272.813 343.472L272.635 346.869ZM280.263 352.374L280.79 342.308L287.291 342.649L287.209 344.226L282.39 343.974L282.26 346.46L286.24 346.668L286.157 348.246L282.177 348.037L282.028 350.885L286.846 351.137L286.764 352.715L280.263 352.374ZM288.092 352.784L291.793 342.885L294.263 343.014L296.909 353.247L295.173 353.156L292.769 343.973L293.142 343.993L289.828 352.875L288.092 352.784ZM289.977 350.694L290.06 349.121L295.344 349.398L295.262 350.971L289.977 350.694ZM302.484 353.749C301.478 353.696 300.627 353.431 299.93 352.954C299.234 352.477 298.715 351.834 298.372 351.026C298.029 350.219 297.885 349.294 297.94 348.254C297.994 347.213 298.234 346.309 298.659 345.541C299.085 344.774 299.669 344.189 300.411 343.787C301.153 343.385 302.027 343.211 303.033 343.263C304.192 343.324 305.143 343.665 305.887 344.285C306.63 344.905 307.131 345.717 307.39 346.718L305.666 347.095C305.508 346.428 305.203 345.897 304.752 345.503C304.3 345.109 303.699 344.892 302.95 344.853C302.274 344.817 301.703 344.939 301.237 345.218C300.77 345.498 300.409 345.905 300.154 346.441C299.898 346.978 299.75 347.613 299.71 348.346C299.67 349.08 299.749 349.727 299.948 350.287C300.146 350.846 300.463 351.289 300.899 351.616C301.335 351.943 301.891 352.124 302.567 352.16C303.316 352.199 303.936 352.045 304.427 351.698C304.918 351.35 305.276 350.856 305.503 350.213L307.177 350.768C306.816 351.738 306.233 352.492 305.428 353.031C304.624 353.57 303.642 353.81 302.484 353.749ZM308.909 353.875L309.437 343.809L311.119 343.897L310.897 348.136L315.665 348.386L315.887 344.147L317.569 344.235L317.042 354.302L315.359 354.213L315.582 349.963L310.814 349.713L310.592 353.964L308.909 353.875ZM319.346 354.422L319.874 344.356L326.375 344.697L326.292 346.274L321.473 346.022L321.343 348.508L325.323 348.717L325.24 350.294L321.26 350.086L321.111 352.933L325.93 353.186L325.847 354.763L319.346 354.422ZM327.874 354.869L328.402 344.803L331.608 344.971C331.694 344.976 331.862 344.987 332.112 345.005C332.362 345.022 332.602 345.052 332.831 345.094C333.625 345.235 334.285 345.553 334.812 346.047C335.339 346.541 335.725 347.154 335.972 347.885C336.219 348.617 336.32 349.409 336.275 350.263C336.23 351.117 336.047 351.895 335.725 352.597C335.403 353.298 334.955 353.867 334.379 354.303C333.804 354.739 333.114 354.986 332.309 355.043C332.078 355.06 331.836 355.064 331.585 355.056C331.333 355.048 331.165 355.042 331.081 355.037L327.874 354.869ZM329.67 353.37L331.164 353.448C331.306 353.456 331.486 353.461 331.702 353.464C331.919 353.467 332.113 353.458 332.284 353.435C332.764 353.367 333.162 353.174 333.478 352.855C333.794 352.536 334.035 352.141 334.201 351.669C334.368 351.196 334.465 350.697 334.492 350.169C334.521 349.622 334.475 349.105 334.355 348.618C334.235 348.131 334.034 347.716 333.75 347.374C333.467 347.032 333.096 346.804 332.637 346.691C332.47 346.646 332.278 346.615 332.06 346.598C331.843 346.58 331.665 346.568 331.525 346.56L330.031 346.482L329.67 353.37Z" fill="#091C32"/>
<rect x="108.735" y="347.177" width="221.709" height="74.0046" rx="16" transform="rotate(-2.99997 108.735 347.177)" fill="#E4E2E4"/>
<rect x="109.26" y="347.65" width="220.709" height="73.0046" rx="15.5" transform="rotate(-2.99997 109.26 347.65)" stroke="#C4C6CD" stroke-opacity="0.1"/>
<g filter="url(#filter3_dd_64_33)">
<rect x="108.735" y="347.177" width="221.7" height="74" rx="16" transform="rotate(-2.99997 108.735 347.177)" fill="white" fill-opacity="0.01" shape-rendering="crispEdges"/>
</g>
<rect x="126.601" y="363.264" width="40.0046" height="40.0046" rx="8" transform="rotate(-2.99997 126.601 363.264)" fill="#705D00"/>
<path d="M142.106 372.468L152.093 371.944L152.503 379.784C152.523 380.166 152.458 380.512 152.307 380.82C152.157 381.129 151.936 381.382 151.646 381.581L148.211 383.864L149.03 386.124L152.825 385.925L149.845 388.284L151.242 392.016L148.023 389.832L145.05 392.341L146.05 388.483L142.839 386.448L146.634 386.25L147.212 383.916L143.557 382.005C143.248 381.837 143.002 381.608 142.82 381.317C142.638 381.027 142.537 380.69 142.517 380.307L142.106 372.468V372.468M144.208 374.36L144.514 380.202V380.202V380.202L146.574 381.296L146.205 374.256L144.208 374.36V374.36M150.2 374.046L148.203 374.151L148.572 381.191L150.506 379.888V379.888V379.888L150.2 374.046V374.046M147.404 378.023V378.023V378.023V378.023V378.023V378.023V378.023M146.39 377.776V377.776V377.776V377.776V377.776V377.776V377.776V377.776M148.387 377.671V377.671V377.671V377.671V377.671V377.671V377.671V377.671" fill="white"/>
<path d="M182.423 371.97C181.861 371.999 181.367 371.937 180.943 371.783C180.518 371.63 180.18 371.392 179.929 371.069C179.679 370.746 179.531 370.346 179.486 369.868L180.769 369.801C180.803 370.054 180.894 370.261 181.04 370.422C181.187 370.583 181.374 370.7 181.603 370.771C181.831 370.843 182.082 370.871 182.354 370.857C182.64 370.842 182.89 370.785 183.105 370.686C183.319 370.587 183.484 370.456 183.6 370.291C183.716 370.126 183.768 369.94 183.758 369.732C183.748 369.543 183.685 369.389 183.569 369.271C183.453 369.154 183.294 369.058 183.093 368.983C182.892 368.908 182.658 368.845 182.391 368.793L181.555 368.621C180.941 368.498 180.456 368.287 180.099 367.988C179.741 367.689 179.549 367.284 179.522 366.771C179.5 366.343 179.596 365.962 179.811 365.629C180.025 365.295 180.328 365.029 180.719 364.83C181.109 364.632 181.558 364.519 182.065 364.492C182.582 364.465 183.04 364.531 183.439 364.69C183.837 364.848 184.154 365.079 184.391 365.382C184.627 365.685 184.761 366.039 184.792 366.444L183.53 366.51C183.481 366.2 183.329 365.965 183.074 365.807C182.818 365.649 182.495 365.58 182.104 365.6C181.832 365.615 181.599 365.668 181.405 365.761C181.212 365.854 181.067 365.975 180.969 366.124C180.871 366.274 180.827 366.441 180.836 366.625C180.847 366.828 180.918 366.991 181.05 367.115C181.181 367.238 181.345 367.334 181.539 367.402C181.734 367.469 181.929 367.523 182.126 367.561L182.814 367.699C183.086 367.749 183.352 367.821 183.613 367.917C183.873 368.012 184.109 368.136 184.321 368.29C184.533 368.443 184.705 368.633 184.836 368.86C184.968 369.087 185.042 369.358 185.059 369.674C185.081 370.1 184.992 370.48 184.792 370.815C184.592 371.15 184.292 371.419 183.892 371.621C183.491 371.823 183.002 371.939 182.423 371.97ZM186.64 365.45L186.583 364.353L192.368 364.05L192.426 365.147L190.187 365.264L190.511 371.433L189.209 371.501L188.885 365.332L186.64 365.45ZM194.881 371.204L194.5 363.938L197.219 363.796C197.775 363.767 198.248 363.84 198.638 364.014C199.028 364.189 199.33 364.446 199.543 364.785C199.756 365.124 199.874 365.524 199.898 365.986C199.923 366.45 199.846 366.857 199.667 367.208C199.488 367.56 199.213 367.838 198.839 368.043C198.466 368.248 197.999 368.366 197.438 368.395L195.5 368.497L195.444 367.418L197.21 367.326C197.54 367.308 197.806 367.248 198.01 367.144C198.213 367.04 198.361 366.897 198.452 366.714C198.542 366.531 198.581 366.311 198.568 366.055C198.554 365.795 198.492 365.576 198.383 365.399C198.273 365.221 198.111 365.088 197.896 365.001C197.681 364.914 197.408 364.879 197.076 364.896L195.86 364.96L196.183 371.136L194.881 371.204ZM198.967 370.99L197.032 367.787L198.455 367.713L200.426 370.913L198.967 370.99ZM202.394 370.81L202.013 363.545L206.732 363.297L206.79 364.394L203.373 364.573L203.476 366.532L206.641 366.366L206.698 367.449L203.532 367.615L203.639 369.645L207.077 369.465L207.134 370.562L202.394 370.81ZM208.952 370.466L211.107 363.068L212.763 362.981L215.733 370.111L214.305 370.186L212.818 366.48C212.671 366.096 212.516 365.662 212.353 365.177C212.19 364.693 212.009 364.14 211.81 363.519L212.084 363.505C211.956 364.147 211.838 364.719 211.732 365.222C211.625 365.725 211.523 366.169 211.426 366.553L210.376 370.392L208.952 370.466ZM210.335 368.589L210.28 367.541L214.107 367.34L214.162 368.388L210.335 368.589ZM218.554 368.171L218.489 366.937C218.63 366.673 218.77 366.427 218.909 366.197C219.048 365.968 219.198 365.74 219.358 365.512C219.518 365.285 219.697 365.043 219.893 364.787L221.687 362.514L223.305 362.429L220.409 366.065L220.309 366.039L218.554 368.171ZM217.703 370.008L217.322 362.742L218.625 362.674L218.737 364.827L218.806 366.584L218.863 367.218L219.005 369.94L217.703 370.008ZM222.2 369.772L219.709 366.476L220.475 365.452L223.738 369.692L222.2 369.772ZM232.19 369.355C231.599 369.386 231.077 369.302 230.622 369.103C230.168 368.903 229.808 368.613 229.544 368.23C229.279 367.847 229.133 367.397 229.106 366.88L228.857 362.138L230.16 362.07L230.403 366.705C230.418 367.01 230.5 367.277 230.648 367.506C230.795 367.735 230.995 367.911 231.248 368.034C231.501 368.157 231.795 368.209 232.129 368.192C232.465 368.174 232.752 368.091 232.99 367.943C233.228 367.794 233.408 367.598 233.53 367.355C233.651 367.112 233.704 366.838 233.688 366.533L233.445 361.897L234.747 361.829L234.996 366.572C235.023 367.089 234.925 367.552 234.701 367.96C234.477 368.368 234.15 368.695 233.721 368.94C233.291 369.186 232.781 369.324 232.19 369.355ZM237.585 368.966L237.204 361.7L238.676 361.623L241.4 365.493C241.512 365.653 241.633 365.835 241.761 366.038C241.89 366.242 242.024 366.47 242.164 366.722C242.303 366.974 242.444 367.255 242.585 367.564L242.439 367.572C242.4 367.299 242.365 367.019 242.332 366.732C242.3 366.445 242.273 366.173 242.25 365.915C242.228 365.657 242.212 365.439 242.202 365.26L242.003 361.449L243.326 361.38L243.706 368.645L242.229 368.723L239.774 365.24C239.619 365.016 239.472 364.795 239.333 364.577C239.193 364.36 239.043 364.113 238.882 363.838C238.721 363.562 238.526 363.23 238.298 362.84L238.481 362.831C238.519 363.184 238.555 363.518 238.589 363.835C238.623 364.151 238.651 364.434 238.675 364.683C238.698 364.932 238.714 365.134 238.722 365.289L238.911 368.896L237.585 368.966ZM246.166 368.516L245.785 361.251L247.088 361.182L247.411 367.351L250.621 367.183L250.678 368.28L246.166 368.516ZM255.644 368.117C255.009 368.151 254.432 368.033 253.913 367.764C253.394 367.495 252.974 367.09 252.654 366.548C252.333 366.007 252.153 365.347 252.112 364.567C252.071 363.782 252.181 363.104 252.443 362.532C252.705 361.96 253.08 361.512 253.568 361.19C254.056 360.868 254.618 360.69 255.253 360.657C255.888 360.624 256.464 360.742 256.981 361.011C257.499 361.281 257.918 361.686 258.237 362.228C258.557 362.77 258.738 363.433 258.779 364.217C258.82 364.999 258.71 365.675 258.448 366.247C258.186 366.818 257.812 367.264 257.326 367.586C256.839 367.907 256.279 368.084 255.644 368.117ZM255.583 366.95C255.978 366.929 256.322 366.813 256.615 366.601C256.909 366.389 257.132 366.088 257.285 365.698C257.438 365.307 257.5 364.837 257.472 364.286C257.442 363.73 257.331 363.265 257.138 362.892C256.945 362.52 256.692 362.243 256.377 362.063C256.063 361.883 255.709 361.803 255.314 361.824C254.918 361.845 254.573 361.962 254.278 362.175C253.984 362.388 253.76 362.69 253.606 363.081C253.453 363.471 253.39 363.944 253.419 364.498C253.448 365.049 253.559 365.51 253.753 365.881C253.947 366.252 254.201 366.529 254.516 366.71C254.831 366.891 255.187 366.971 255.583 366.95ZM264.304 367.663C263.668 367.697 263.091 367.579 262.575 367.31C262.058 367.041 261.641 366.635 261.323 366.094C261.006 365.553 260.826 364.892 260.785 364.112C260.744 363.328 260.854 362.649 261.115 362.077C261.376 361.505 261.75 361.058 262.236 360.736C262.723 360.414 263.281 360.236 263.913 360.203C264.311 360.182 264.686 360.219 265.038 360.313C265.391 360.408 265.708 360.556 265.99 360.758C266.272 360.96 266.509 361.212 266.701 361.514C266.893 361.816 267.028 362.164 267.107 362.559L265.794 362.627C265.743 362.413 265.661 362.225 265.549 362.065C265.438 361.904 265.302 361.769 265.143 361.661C264.984 361.553 264.808 361.475 264.613 361.426C264.418 361.376 264.212 361.358 263.995 361.369C263.598 361.39 263.251 361.508 262.954 361.723C262.658 361.939 262.433 362.242 262.28 362.633C262.126 363.024 262.064 363.494 262.093 364.044C262.122 364.598 262.234 365.061 262.43 365.433C262.625 365.805 262.881 366.081 263.197 366.259C263.513 366.437 263.868 366.516 264.26 366.495C264.478 366.484 264.68 366.443 264.868 366.373C265.056 366.303 265.224 366.206 265.372 366.083C265.52 365.96 265.641 365.812 265.737 365.639C265.832 365.467 265.895 365.272 265.925 365.055L267.238 364.987C267.208 365.338 267.119 365.669 266.97 365.981C266.822 366.292 266.621 366.571 266.368 366.816C266.114 367.062 265.814 367.258 265.468 367.407C265.121 367.555 264.733 367.641 264.304 367.663ZM270.41 365.453L270.345 364.219C270.486 363.956 270.626 363.709 270.765 363.48C270.904 363.25 271.054 363.022 271.214 362.795C271.374 362.568 271.552 362.326 271.748 362.069L273.543 359.796L275.161 359.711L272.264 363.347L272.165 363.321L270.41 365.453ZM269.559 367.29L269.178 360.025L270.48 359.957L270.593 362.11L270.662 363.866L270.718 364.501L270.861 367.222L269.559 367.29ZM274.056 367.055L271.565 363.759L272.331 362.734L275.594 366.974L274.056 367.055ZM277.579 366.87L277.198 359.604L281.917 359.357L281.975 360.454L278.558 360.633L278.661 362.592L281.826 362.426L281.883 363.508L278.717 363.674L278.824 365.705L282.262 365.525L282.319 366.621L277.579 366.87ZM287.083 366.372L285.243 366.468L285.184 365.34L286.958 365.247C287.467 365.22 287.886 365.105 288.217 364.902C288.548 364.699 288.789 364.406 288.94 364.024C289.091 363.642 289.152 363.173 289.123 362.615C289.094 362.06 288.984 361.602 288.794 361.241C288.604 360.88 288.337 360.616 287.992 360.448C287.648 360.281 287.228 360.21 286.731 360.236L284.886 360.333L284.827 359.205L286.751 359.104C287.474 359.066 288.101 359.178 288.633 359.441C289.165 359.704 289.584 360.099 289.891 360.626C290.197 361.154 290.37 361.794 290.41 362.547C290.45 363.303 290.344 363.961 290.094 364.519C289.844 365.078 289.464 365.517 288.954 365.835C288.445 366.154 287.821 366.333 287.083 366.372ZM285.545 359.167L285.926 366.432L284.624 366.501L284.243 359.235L285.545 359.167Z" fill="#44474D"/>
<path d="M186.424 393.834C185.394 393.888 184.459 393.702 183.621 393.276C182.782 392.85 182.104 392.205 181.588 391.341C181.071 390.476 180.78 389.414 180.714 388.156C180.648 386.89 180.828 385.799 181.256 384.883C181.683 383.968 182.293 383.255 183.084 382.744C183.874 382.233 184.779 381.95 185.798 381.897C186.459 381.862 187.079 381.922 187.659 382.077C188.239 382.231 188.76 382.474 189.219 382.805C189.679 383.136 190.064 383.55 190.373 384.046C190.683 384.543 190.898 385.116 191.019 385.766L188.61 385.892C188.538 385.576 188.422 385.298 188.263 385.057C188.103 384.816 187.907 384.615 187.675 384.452C187.443 384.289 187.182 384.171 186.892 384.096C186.602 384.02 186.291 383.992 185.959 384.009C185.355 384.041 184.833 384.219 184.392 384.545C183.952 384.871 183.62 385.327 183.399 385.915C183.177 386.502 183.088 387.207 183.131 388.029C183.175 388.866 183.339 389.564 183.625 390.124C183.911 390.683 184.288 391.097 184.757 391.363C185.226 391.63 185.759 391.748 186.355 391.717C186.687 391.7 186.992 391.638 187.271 391.532C187.551 391.426 187.798 391.28 188.015 391.095C188.231 390.91 188.408 390.689 188.544 390.432C188.681 390.174 188.77 389.886 188.811 389.566L191.22 389.44C191.184 389.983 191.05 390.508 190.82 391.015C190.59 391.521 190.271 391.981 189.863 392.392C189.454 392.804 188.963 393.137 188.387 393.393C187.811 393.648 187.157 393.795 186.424 393.834ZM197.015 393.293C196.14 393.339 195.373 393.191 194.714 392.848C194.055 392.506 193.536 392.006 193.155 391.35C192.774 390.693 192.56 389.917 192.513 389.023C192.466 388.121 192.597 387.323 192.907 386.629C193.217 385.935 193.682 385.383 194.302 384.974C194.921 384.565 195.668 384.337 196.543 384.291C197.42 384.245 198.187 384.393 198.845 384.736C199.502 385.078 200.021 385.579 200.402 386.236C200.783 386.894 200.997 387.674 201.044 388.576C201.091 389.47 200.959 390.264 200.649 390.957C200.339 391.65 199.875 392.201 199.257 392.61C198.639 393.02 197.892 393.247 197.015 393.293ZM196.918 391.451C197.335 391.43 197.677 391.296 197.945 391.05C198.212 390.803 198.406 390.476 198.525 390.067C198.643 389.658 198.69 389.2 198.663 388.692C198.636 388.179 198.542 387.727 198.381 387.334C198.22 386.942 197.994 386.638 197.702 386.423C197.41 386.208 197.056 386.111 196.639 386.133C196.223 386.155 195.881 386.288 195.614 386.532C195.347 386.777 195.154 387.102 195.035 387.508C194.916 387.914 194.87 388.374 194.897 388.89C194.923 389.397 195.017 389.848 195.178 390.242C195.339 390.637 195.565 390.942 195.856 391.159C196.147 391.376 196.501 391.473 196.918 391.451ZM204.976 387.641L205.241 392.691L202.901 392.814L202.444 384.091L204.653 383.976L204.805 386.151L204.664 386.158C204.855 385.419 205.173 384.838 205.618 384.415C206.064 383.992 206.654 383.761 207.391 383.723C207.995 383.691 208.529 383.795 208.992 384.034C209.455 384.274 209.824 384.632 210.098 385.109C210.372 385.587 210.527 386.167 210.563 386.849L210.853 392.397L208.514 392.52L208.244 387.38C208.216 386.838 208.054 386.42 207.758 386.127C207.463 385.834 207.068 385.7 206.575 385.726C206.246 385.743 205.957 385.83 205.709 385.988C205.461 386.145 205.272 386.363 205.141 386.642C205.011 386.921 204.956 387.254 204.976 387.641ZM216.323 392.281C215.621 392.318 214.994 392.25 214.442 392.078C213.891 391.905 213.433 391.637 213.071 391.274C212.709 390.911 212.463 390.462 212.333 389.929L214.495 389.44C214.63 389.84 214.845 390.133 215.141 390.321C215.437 390.508 215.824 390.59 216.302 390.565C216.748 390.541 217.096 390.438 217.346 390.254C217.596 390.07 217.714 389.848 217.7 389.588C217.688 389.359 217.587 389.177 217.395 389.041C217.203 388.905 216.914 388.808 216.525 388.748L215.008 388.518C214.157 388.389 213.513 388.129 213.076 387.738C212.639 387.348 212.403 386.826 212.369 386.173C212.339 385.614 212.467 385.126 212.75 384.706C213.034 384.287 213.444 383.954 213.981 383.706C214.517 383.459 215.153 383.316 215.887 383.277C216.578 383.241 217.18 383.305 217.694 383.469C218.209 383.634 218.63 383.881 218.959 384.212C219.287 384.543 219.518 384.943 219.651 385.413L217.593 385.887C217.486 385.594 217.302 385.359 217.04 385.184C216.779 385.008 216.436 384.931 216.012 384.954C215.627 384.974 215.308 385.072 215.056 385.247C214.805 385.423 214.686 385.644 214.7 385.91C214.711 386.128 214.805 386.309 214.981 386.451C215.157 386.594 215.453 386.698 215.869 386.762L217.452 386.992C218.305 387.118 218.948 387.365 219.38 387.731C219.812 388.098 220.045 388.594 220.078 389.217C220.107 389.788 219.967 390.297 219.656 390.744C219.345 391.19 218.902 391.548 218.328 391.817C217.754 392.087 217.086 392.241 216.323 392.281ZM221.797 391.824L221.34 383.101L223.68 382.978L224.137 391.701L221.797 391.824ZM222.45 381.903C222.097 381.921 221.789 381.819 221.525 381.597C221.262 381.375 221.121 381.098 221.104 380.769C221.086 380.432 221.197 380.141 221.436 379.895C221.675 379.649 221.971 379.517 222.324 379.498C222.677 379.48 222.986 379.58 223.25 379.799C223.514 380.019 223.655 380.297 223.673 380.634C223.69 380.964 223.579 381.253 223.34 381.502C223.1 381.751 222.803 381.884 222.45 381.903ZM229.602 391.585C228.9 391.622 228.273 391.554 227.721 391.382C227.169 391.209 226.712 390.941 226.35 390.578C225.987 390.215 225.741 389.766 225.612 389.233L227.773 388.744C227.908 389.144 228.124 389.437 228.42 389.625C228.716 389.813 229.103 389.894 229.581 389.869C230.027 389.845 230.374 389.742 230.624 389.558C230.874 389.374 230.993 389.152 230.979 388.892C230.967 388.663 230.865 388.481 230.674 388.345C230.482 388.209 230.192 388.112 229.804 388.053L228.286 387.822C227.436 387.693 226.792 387.433 226.355 387.042C225.917 386.652 225.682 386.13 225.647 385.477C225.618 384.918 225.745 384.43 226.029 384.01C226.312 383.591 226.723 383.258 227.259 383.01C227.796 382.763 228.431 382.62 229.165 382.581C229.856 382.545 230.459 382.609 230.973 382.774C231.487 382.938 231.909 383.185 232.238 383.516C232.566 383.847 232.797 384.247 232.929 384.717L230.872 385.191C230.765 384.898 230.58 384.664 230.319 384.488C230.057 384.312 229.715 384.235 229.291 384.258C228.905 384.278 228.587 384.376 228.335 384.551C228.083 384.727 227.964 384.948 227.978 385.214C227.99 385.432 228.084 385.613 228.26 385.755C228.436 385.898 228.731 386.002 229.147 386.066L230.731 386.296C231.584 386.422 232.226 386.669 232.659 387.036C233.091 387.402 233.324 387.898 233.356 388.521C233.386 389.093 233.246 389.601 232.934 390.048C232.623 390.494 232.181 390.852 231.607 391.121C231.033 391.391 230.365 391.545 229.602 391.585ZM238.953 382.178L239.046 383.961L233.871 384.232L233.778 382.449L238.953 382.178ZM234.87 380.311L237.21 380.188L237.642 388.433C237.657 388.711 237.729 388.912 237.859 389.037C237.99 389.163 238.196 389.218 238.478 389.203C238.57 389.198 238.695 389.18 238.854 389.15C239.013 389.119 239.134 389.091 239.216 389.066L239.643 390.803C239.387 390.894 239.131 390.962 238.876 391.005C238.621 391.049 238.376 391.077 238.141 391.089C237.266 391.135 236.586 390.958 236.102 390.557C235.618 390.157 235.355 389.558 235.313 388.762L234.87 380.311ZM244.725 390.793C243.834 390.839 243.057 390.697 242.393 390.366C241.729 390.036 241.207 389.544 240.826 388.891C240.445 388.238 240.231 387.452 240.182 386.532C240.135 385.634 240.266 384.838 240.574 384.143C240.882 383.448 241.34 382.894 241.949 382.482C242.557 382.07 243.286 381.841 244.136 381.797C244.705 381.767 245.242 381.83 245.747 381.986C246.251 382.141 246.7 382.392 247.092 382.738C247.485 383.085 247.801 383.529 248.04 384.072C248.279 384.615 248.418 385.26 248.458 386.007L248.492 386.664L241.172 387.047L241.095 385.575L247.275 385.251L246.202 385.703C246.178 385.249 246.088 384.858 245.932 384.53C245.775 384.202 245.556 383.953 245.274 383.782C244.993 383.612 244.649 383.537 244.245 383.558C243.84 383.58 243.502 383.691 243.23 383.893C242.958 384.095 242.757 384.36 242.627 384.689C242.496 385.017 242.442 385.386 242.463 385.795L242.518 386.831C242.544 387.336 242.651 387.755 242.838 388.09C243.024 388.424 243.276 388.669 243.591 388.826C243.906 388.982 244.266 389.05 244.67 389.029C244.943 389.014 245.189 388.962 245.408 388.873C245.627 388.783 245.813 388.658 245.966 388.497C246.119 388.336 246.231 388.142 246.304 387.914L248.44 388.195C248.324 388.684 248.102 389.117 247.773 389.495C247.444 389.873 247.023 390.175 246.51 390.401C245.997 390.627 245.402 390.757 244.725 390.793ZM252.364 385.157L252.629 390.208L250.289 390.33L249.832 381.608L252.041 381.492L252.193 383.668L252.052 383.675C252.243 382.935 252.561 382.354 253.006 381.931C253.452 381.508 254.043 381.278 254.779 381.239C255.384 381.207 255.917 381.311 256.38 381.551C256.843 381.79 257.212 382.149 257.486 382.626C257.76 383.104 257.915 383.683 257.951 384.366L258.241 389.914L255.902 390.036L255.632 384.896C255.604 384.354 255.442 383.937 255.146 383.643C254.851 383.35 254.456 383.216 253.963 383.242C253.634 383.259 253.345 383.347 253.097 383.504C252.849 383.662 252.66 383.88 252.529 384.159C252.399 384.438 252.344 384.77 252.364 385.157ZM264.145 389.775C263.27 389.821 262.504 389.673 261.847 389.33C261.189 388.988 260.67 388.488 260.289 387.831C259.908 387.175 259.694 386.399 259.648 385.505C259.6 384.603 259.732 383.805 260.042 383.111C260.352 382.417 260.816 381.865 261.434 381.456C262.052 381.046 262.798 380.819 263.673 380.773C264.193 380.746 264.674 380.788 265.118 380.9C265.561 381.011 265.958 381.183 266.309 381.416C266.659 381.649 266.953 381.938 267.19 382.285C267.427 382.632 267.598 383.026 267.705 383.469L265.551 383.991C265.49 383.767 265.407 383.567 265.3 383.392C265.192 383.217 265.065 383.069 264.917 382.949C264.769 382.828 264.601 382.739 264.413 382.682C264.225 382.624 264.019 382.602 263.795 382.613C263.378 382.635 263.035 382.766 262.765 383.005C262.495 383.244 262.298 383.566 262.175 383.972C262.052 384.379 262.004 384.845 262.031 385.371C262.058 385.89 262.155 386.346 262.32 386.738C262.485 387.131 262.714 387.434 263.008 387.646C263.302 387.859 263.657 387.954 264.074 387.932C264.3 387.92 264.505 387.874 264.689 387.795C264.872 387.716 265.032 387.606 265.17 387.467C265.308 387.328 265.421 387.161 265.509 386.966C265.597 386.772 265.657 386.557 265.691 386.32L267.884 386.61C267.827 387.074 267.699 387.494 267.499 387.869C267.298 388.243 267.036 388.569 266.713 388.844C266.389 389.12 266.01 389.337 265.577 389.496C265.144 389.655 264.667 389.748 264.145 389.775ZM269.45 392.423L269.894 390.63L270.185 390.692C270.506 390.756 270.787 390.764 271.028 390.715C271.268 390.665 271.458 390.556 271.598 390.387C271.737 390.218 271.815 389.988 271.831 389.697L271.875 389.225L268.139 380.648L270.624 380.518L272.327 384.969C272.537 385.532 272.713 386.096 272.855 386.661C272.996 387.226 273.154 387.817 273.329 388.432L272.785 388.461C272.895 387.831 273.004 387.224 273.113 386.642C273.222 386.059 273.355 385.481 273.513 384.907L274.811 380.299L277.267 380.17L274.074 390.116C273.921 390.593 273.716 391.012 273.457 391.37C273.199 391.729 272.869 392.012 272.468 392.22C272.068 392.428 271.575 392.547 270.99 392.578C270.681 392.594 270.39 392.587 270.115 392.557C269.841 392.526 269.619 392.481 269.45 392.423ZM284.428 385.906L284.315 383.736C284.529 383.292 284.742 382.882 284.953 382.504C285.165 382.127 285.398 381.749 285.653 381.369C285.908 380.99 286.202 380.575 286.535 380.123L289.204 376.634L292.116 376.482L287.506 382.418L287.307 382.357L284.428 385.906ZM282.806 388.626L282.197 377.002L284.581 376.877L284.747 380.055L284.858 383.017L284.964 384.178L285.19 388.501L282.806 388.626ZM290.034 388.247L286.312 383.184L287.721 381.327L292.847 388.1L290.034 388.247ZM294.362 388.021L293.904 379.298L296.244 379.176L296.701 387.898L294.362 388.021ZM295.014 378.1C294.662 378.118 294.354 378.016 294.09 377.794C293.826 377.572 293.686 377.296 293.668 376.966C293.651 376.629 293.761 376.338 294.001 376.092C294.24 375.846 294.536 375.714 294.888 375.695C295.242 375.677 295.551 375.777 295.815 375.997C296.079 376.216 296.22 376.494 296.237 376.831C296.255 377.161 296.144 377.451 295.904 377.699C295.665 377.948 295.368 378.081 295.014 378.1ZM300.767 382.621L301.031 387.671L298.692 387.794L298.234 379.071L300.444 378.955L300.595 381.131L300.455 381.138C300.645 380.399 300.963 379.818 301.409 379.395C301.854 378.972 302.445 378.741 303.181 378.702C303.786 378.671 304.32 378.775 304.783 379.014C305.245 379.253 305.614 379.612 305.888 380.089C306.162 380.567 306.317 381.147 306.353 381.829L306.644 387.377L304.304 387.5L304.035 382.36C304.006 381.818 303.844 381.4 303.549 381.107C303.253 380.813 302.859 380.68 302.365 380.705C302.036 380.723 301.748 380.81 301.5 380.968C301.252 381.125 301.062 381.343 300.932 381.622C300.801 381.901 300.746 382.234 300.767 382.621ZM312.695 390.518C311.969 390.556 311.331 390.497 310.782 390.342C310.233 390.187 309.78 389.957 309.425 389.652C309.069 389.347 308.816 388.991 308.665 388.582L310.647 387.92C310.73 388.077 310.852 388.228 311.012 388.374C311.172 388.52 311.382 388.635 311.642 388.72C311.901 388.804 312.22 388.837 312.597 388.817C313.193 388.786 313.655 388.624 313.982 388.333C314.31 388.041 314.458 387.606 314.428 387.029L314.344 385.425L314.161 385.434C314.069 385.673 313.929 385.907 313.743 386.135C313.557 386.363 313.307 386.555 312.995 386.711C312.682 386.867 312.29 386.957 311.818 386.982C311.163 387.016 310.559 386.894 310.006 386.614C309.453 386.334 309.001 385.888 308.65 385.276C308.298 384.664 308.098 383.877 308.047 382.916C307.996 381.932 308.115 381.102 308.404 380.424C308.694 379.747 309.099 379.228 309.62 378.866C310.14 378.505 310.723 378.307 311.367 378.273C311.859 378.248 312.274 378.309 312.614 378.456C312.954 378.604 313.234 378.795 313.452 379.029C313.671 379.263 313.84 379.493 313.96 379.719L314.054 379.714L313.977 378.246L316.282 378.125L316.736 386.775C316.777 387.56 316.63 388.224 316.295 388.765C315.961 389.306 315.483 389.723 314.861 390.015C314.24 390.307 313.518 390.475 312.695 390.518ZM312.456 385.164C312.857 385.143 313.192 385.027 313.46 384.816C313.728 384.604 313.925 384.308 314.052 383.928C314.179 383.549 314.229 383.099 314.202 382.579C314.175 382.062 314.079 381.615 313.913 381.239C313.748 380.863 313.52 380.575 313.231 380.377C312.941 380.178 312.595 380.09 312.191 380.111C311.783 380.132 311.445 380.26 311.177 380.495C310.909 380.73 310.714 381.044 310.592 381.436C310.469 381.828 310.421 382.275 310.447 382.776C310.474 383.282 310.569 383.717 310.732 384.083C310.895 384.449 311.122 384.726 311.412 384.914C311.702 385.102 312.05 385.186 312.456 385.164Z" fill="#04172C"/>
<defs>
<filter id="filter0_f_64_33" x="0" y="0" width="384" height="384" filterUnits="userSpaceOnUse" color-interpolation-filters="sRGB">
<feFlood flood-opacity="0" result="BackgroundImageFix"/>
<feBlend mode="normal" in="SourceGraphic" in2="BackgroundImageFix" result="shape"/>
<feGaussianBlur stdDeviation="32" result="effect1_foregroundBlur_64_33"/>
</filter>
<filter id="filter1_f_64_33" x="234" y="214" width="272" height="272" filterUnits="userSpaceOnUse" color-interpolation-filters="sRGB">
<feFlood flood-opacity="0" result="BackgroundImageFix"/>
<feBlend mode="normal" in="SourceGraphic" in2="BackgroundImageFix" result="shape"/>
<feGaussianBlur stdDeviation="20" result="effect1_foregroundBlur_64_33"/>
</filter>
<filter id="filter2_d_64_33" x="103.699" y="128.693" width="342.602" height="342.602" filterUnits="userSpaceOnUse" color-interpolation-filters="sRGB">
<feFlood flood-opacity="0" result="BackgroundImageFix"/>
<feColorMatrix in="SourceAlpha" type="matrix" values="0 0 0 0 0 0 0 0 0 0 0 0 0 0 0 0 0 0 127 0" result="hardAlpha"/>
<feMorphology radius="12" operator="erode" in="SourceAlpha" result="effect1_dropShadow_64_33"/>
<feOffset dy="25"/>
<feGaussianBlur stdDeviation="25"/>
<feComposite in2="hardAlpha" operator="out"/>
<feColorMatrix type="matrix" values="0 0 0 0 0 0 0 0 0 0 0 0 0 0 0 0 0 0 0.25 0"/>
<feBlend mode="normal" in2="BackgroundImageFix" result="effect1_dropShadow_64_33"/>
<feBlend mode="normal" in="SourceGraphic" in2="effect1_dropShadow_64_33" result="shape"/>
</filter>
<filter id="filter3_dd_64_33" x="97.5496" y="334.389" width="247.639" height="107.871" filterUnits="userSpaceOnUse" color-interpolation-filters="sRGB">
<feFlood flood-opacity="0" result="BackgroundImageFix"/>
<feColorMatrix in="SourceAlpha" type="matrix" values="0 0 0 0 0 0 0 0 0 0 0 0 0 0 0 0 0 0 127 0" result="hardAlpha"/>
<feMorphology radius="4" operator="erode" in="SourceAlpha" result="effect1_dropShadow_64_33"/>
<feOffset dy="4"/>
<feGaussianBlur stdDeviation="3"/>
<feComposite in2="hardAlpha" operator="out"/>
<feColorMatrix type="matrix" values="0 0 0 0 0 0 0 0 0 0 0 0 0 0 0 0 0 0 0.1 0"/>
<feBlend mode="normal" in2="BackgroundImageFix" result="effect1_dropShadow_64_33"/>
<feColorMatrix in="SourceAlpha" type="matrix" values="0 0 0 0 0 0 0 0 0 0 0 0 0 0 0 0 0 0 127 0" result="hardAlpha"/>
<feMorphology radius="3" operator="erode" in="SourceAlpha" result="effect2_dropShadow_64_33"/>
<feOffset dy="10"/>
<feGaussianBlur stdDeviation="7.5"/>
<feComposite in2="hardAlpha" operator="out"/>
<feColorMatrix type="matrix" values="0 0 0 0 0 0 0 0 0 0 0 0 0 0 0 0 0 0 0.1 0"/>
<feBlend mode="normal" in2="effect1_dropShadow_64_33" result="effect2_dropShadow_64_33"/>
<feBlend mode="normal" in="SourceGraphic" in2="effect2_dropShadow_64_33" result="shape"/>
</filter>
<linearGradient id="paint0_linear_64_33" x1="131.32" y1="130.49" x2="541.71" y2="130.49" gradientUnits="userSpaceOnUse">
<stop stop-color="#C4C6CD" stop-opacity="0"/>
<stop offset="0.5" stop-color="#C4C6CD" stop-opacity="0.2"/>
<stop offset="1" stop-color="#C4C6CD" stop-opacity="0"/>
</linearGradient>
<linearGradient id="paint1_linear_64_33" x1="73.8701" y1="317.7" x2="484.26" y2="317.7" gradientUnits="userSpaceOnUse">
<stop stop-color="#C4C6CD" stop-opacity="0"/>
<stop offset="0.5" stop-color="#C4C6CD" stop-opacity="0.15"/>
<stop offset="1" stop-color="#C4C6CD" stop-opacity="0"/>
</linearGradient>
<linearGradient id="paint2_linear_64_33" x1="328.334" y1="137.63" x2="424.337" y2="233.632" gradientUnits="userSpaceOnUse">
<stop stop-color="#00DAF3" stop-opacity="0.4"/>
<stop offset="1" stop-color="#9CF0FF" stop-opacity="0.2"/>
</linearGradient>
</defs>
</svg>
